<?xml version="1.0" encoding="UTF-8" standalone="no"?>
<svg width="16px" height="14px" viewBox="0 0 16 14" version="1.1" xmlns="http://www.w3.org/2000/svg" xmlns:xlink="http://www.w3.org/1999/xlink">
    <!-- Generator: Sketch 40.2 (33826) - http://www.bohemiancoding.com/sketch -->
    <title>logo</title>
    <desc>Created with Sketch.</desc>
    <defs></defs>
    <g id="Ant-Motion" stroke="none" stroke-width="1" fill="none" fill-rule="evenodd">
        <g id="网站首页-copy-2" transform="translate(-298.000000, -468.000000)">
            <g id="Group-18" transform="translate(209.000000, 456.000000)">
                <g id="Group-16">
                    <g id="logo" transform="translate(90.000000, 13.000000)">
                        <ellipse id="Oval" fill="#3E3E3E" cx="6.98655852" cy="5.99743798" rx="1.30501416" ry="1.26240146"></ellipse>
                        <path d="M6.99502888,3.38216895 C8.74718735,3.38216895 10.3748977,3.62537883 11.6021839,4.03409221 C13.0808895,4.52652617 13.9900578,5.27299051 13.9900578,5.94889505 C13.9900578,6.65326006 13.0264955,7.44622744 11.4385856,7.95516897 C10.2380412,8.33995141 8.65829957,8.54078514 6.99502888,8.54078514 C5.28974655,8.54078514 3.67493883,8.35225659 2.46115365,7.95091625 C0.925166519,7.44305678 0,6.63979733 0,5.94889505 C0,5.27847626 0.868067109,4.53779963 2.32598803,4.04609543 C3.55785252,3.63066326 5.22575359,3.38216895 6.99502888,3.38216895 L6.99502888,3.38216895 Z" id="Shape" stroke="#3E3E3E"></path>
                        <path d="M4.65858284,4.69872771 C5.53390769,3.23045972 6.5648707,1.98796297 7.54398901,1.1636916 C8.72369663,0.170569906 9.84635687,-0.218389755 10.4516366,0.119260548 C11.0824095,0.4711285 11.3111713,1.6747469 10.9736475,3.25962478 C10.7184561,4.45788324 10.1091182,5.88201361 9.27819823,7.27582138 C8.42628544,8.70483356 7.45075699,9.96381271 6.48495754,10.7804594 C5.26282206,11.8138938 4.08131951,12.1878557 3.46259083,11.8427066 C2.8622276,11.507774 2.63260733,10.4103476 2.92062768,8.94298548 C3.16398303,7.70315611 3.77469958,6.18136433 4.65858284,4.69872771 L4.65858284,4.69872771 Z" id="Shape" stroke="#3E3E3E"></path>
                        <path d="M4.657196,7.2658339 C3.77934785,5.79897509 3.18142989,4.314426 2.93219552,3.08219616 C2.63189684,1.59754642 2.8442182,0.462399216 3.44892566,0.123767518 C4.07907423,-0.229132158 5.2712943,0.180235492 6.52214857,1.25463684 C7.46789169,2.06693017 8.43902388,3.28881761 9.2723631,4.68129169 C10.1267472,6.10891985 10.767119,7.55524485 11.0161973,8.77250212 C11.3314016,10.3128649 11.0762622,11.4898095 10.4581318,11.8359652 C9.85834092,12.171854 8.76078361,11.8162367 7.59044081,10.8420131 C6.60159349,10.0188741 5.54365458,8.74703617 4.657196,7.2658339 L4.657196,7.2658339 Z" id="Shape" stroke="#3E3E3E"></path>
                    </g>
                </g>
            </g>
        </g>
    </g>
</svg>