<?xml version="1.0" standalone="no"?><!DOCTYPE svg PUBLIC "-//W3C//DTD SVG 1.1//EN" "http://www.w3.org/Graphics/SVG/1.1/DTD/svg11.dtd"><svg t="1495766984429" class="icon" style="" viewBox="0 0 1024 1024" version="1.1" xmlns="http://www.w3.org/2000/svg" p-id="4499" xmlns:xlink="http://www.w3.org/1999/xlink" width="32" height="32"><defs><style type="text/css"></style></defs><path d="M689.622602 297.864623h-8.488009c0 4.867551 0.542659 6.292799-2.75118 9.853873-1.810229 1.958693-1.700674 2.334459-4.488713 2.948789-3.239573 0.732078-9.393124 1.48361-13.012559 1.48361l-4.578815 17.156223c-7.474363 5.480858-14.533028 11.754204-21.048011 18.402291-3.601005 3.66039-6.352185 6.391092-10.749772 8.964116-3.258003 1.899307-6.389044 8.508487-7.112931 12.921432-0.542659 3.284624-0.688051 5.480858-1.194874 8.707121-0.398291 2.611931-0.796583 6.946038-1.447774 9.121795-1.810229 6.055258-9.808821 4.74878-14.587294 4.74878h-38.530853c-2.895548-13.634057-3.076775-13.891052-11.781848-14.266818-3.999296-0.178156-9.664454-4.135473-12.758635-6.747405-2.841282-2.393844-0.308189-2.335482-3.546739-3.26517 0-7.559345-1.447774-20.836066 1.339242-26.396788 2.859712-5.738877 9.736126-4.808165 11.709153-12.901979 5.899627 0 11.076391 0.178156 16.523461-1.919785 2.280193-0.870303 2.135825-1.721151 4.361751-2.37439 0-7.618731 0.162798-19.609452-5.049802-25.210104-3.149471-3.383941-6.931704-6.153551-9.808821-9.993121-4.162094-5.580175-1.900331-5.362087-8.50644-11.417345-2.008863-1.839922-4.180524-2.453229-6.460716-3.640936-2.642648-1.385317-2.207497-3.562097-2.986674-6.747405-0.596925-2.493161-1.411938-5.362087-2.19009-8.330331-1.846065-7.182556-3.819092-7.49996-9.791416-10.012574-3.402371-1.444702-20.956885-1.128322-25.5357 0.573376-9.284592 3.443326-29.77049 2.097941-39.434943 1.20716-16.596157-1.504088-6.913274 3.621482-23.617963-11.298574-3.601005-3.225239-6.606108-5.896556-7.040235-11.595502-2.334459 0-3.69213 0.237541-5.375398 0.553922-4.506119 0.850849-3.999296 3.799638-6.587678 7.084263-1.574736 1.998624-0.922521 2.809541-3.727967 3.06756-0.362455 4.828643-2.244357 1.839922-0.651191 9.280497h-3.258003v5.006799c-2.949814 0.751532-2.153231 0.632761-3.510903 3.304078-1.24914 2.473707-1.810229 2.295551-2.370294 4.55117h-13.066825c-0.995217 4.116019-4.687347 8.58835-5.827955 12.921433-2.153231 8.251492-2.063129 6.312253-5.936487 12.783209-7.601325 12.683891-3.673701 5.006799-15.002992 5.006799-0.090102 0-3.348105 2.770634-6.533412 2.849473l-17.120387-1.207161c-3.166877-0.218088-5.44707 1.939239-7.021805 1.939239-1.864495 0-6.40645-1.424224-14.369207-1.424225-3.492473 0-2.551522 1.207161-5.755259 0.653239-2.986673-0.51399-6.641944 3.482234-7.221463 6.569248-0.398291 2.136849 0 3.304078-0.796583 4.848097-1.284976 2.493161-0.126962 0.494537-1.320812 1.404771l-5.121475 3.680868c-2.153231 1.820468-3.00408 9.121794-10.64124 15.493432l-6.587678 8.508487c-2.534116 3.1464-1.52047 4.788712-6.931704 5.283249-0.235494 3.047083-1.067912 3.383941-1.303406 6.431023-3.149471-0.910234-1.122178-0.751532-2.877117-3.997248-1.086342-1.998624-2.190091-2.611931-4.307486-3.146399 0.959381-2.196234 0.651191-2.611931 0.651191-5.7184-7.745692-1.97917-2.913978-0.870303-9.1392 0.712624l-0.705457 6.569248c0 0.078839 0.054266 0.277473 0.072695 0.336859l0.198634 0.712624c0.198634 0.950166 0.307166 1.444702 0.434128 3.087014-4.180524 1.068936-6.062425-2.512615-6.533413 3.581551 1.900331 0.494537 0.940951-0.099317 1.954597 1.424225-1.103748 1.385317-1.466204 1.542995-1.954597 3.58155h4.578816c0.308189 4.135473 1.411938 1.721151-0.669621 4.926937-5.2126 8.01395-7.782552 0.870303-10.91257 0.950165-4.017726 0.078839-8.686643 2.097941-12.595838 3.403395-2.98565 0.989073-2.588382 2.018078-5.882221 2.868927l-0.813989 7.598253c0.054266 0.573376 1.48361 2.611931-0.651191 6.589726l-2.063129 1.385316c-0.090102 0.019454-0.28976 0.039932-0.379861 0.07884-4.144688 1.542995-3.348105 5.342634-3.293839 7.935111-1.447774 0.850849-1.973027 1.187707-3.258003 2.136849 0.108532 5.402019 2.044699 9.418721-3.836499 15.078759a6.346041 6.346041 0 0 0-0.344025 0.336858c-2.280193 2.255619-2.280193 4.214312-4.560385 6.450478-0.307166 0.296927-0.959381 0.89078-1.049483 1.00955 0.452557 5.917033 2.280193 2.136849-0.723887 7.756956-0.470987 0.870303-0.452557 1.048459-0.905114 1.879853-1.24914 2.236166-3.095205 3.186331-4.50612 5.085639-0.868255 1.167229-1.122178 1.879853-1.755963 3.06756-1.50204 2.809541-1.900331 3.284624-1.900331 7.914634-3.420801 0-3.71056 0.553922-6.099285 1.899307l-10.713936 3.779161c-0.108532 0.019454-0.28976 0.099317-0.379861 0.11877-0.090102 0.019454-0.27133 0.078839-0.379862 0.099317-4.850145 1.167229-3.529333 2.255619-5.936487 6.252868l-1.266546 2.889404c-0.959381 2.236166-2.534116 2.750156-4.017726 4.888029l-4.434447 7.281872c-1.320812 1.780537-0.325596 1.404771-2.660055 2.077463 0.651191 1.97917 2.895548 2.433775-0.651191 2.849473-0.072696 3.779161-0.850849 5.066185-2.46142 7.301327-1.52047 2.097941-1.013646 2.414322-2.244357 4.689394-0.452557 0.831395-0.868255 1.207161-1.158014 1.582927 0.362455 0.593853 1.103748 2.05801 1.50204 2.651863l0.579519 0.810917c1.973027 2.671317 1.719103 4.254244-0.126962 7.262419 2.73275 0.692146 1.791799 1.345385 5.230006 1.425248 0 8.152175-1.067912 4.333083 2.605789 8.567873-0.813989 3.324556-1.032076 0.632761-1.303406 4.294175 5.338538-0.494537-0.813989-2.136849 6.533412-2.136849 0.922521 4.313629 1.158014 7.914634 5.882221 9.280497 0 14.029277 2.949814 16.305374-2.117395 25.545938-1.701697 3.087014-1.140608 4.294175-1.140608 8.746029-2.624218 0.237541-4.904411 1.147775-5.230006 4.294175-7.148767 0.178156-3.258003 7.182556-3.258003 8.567872 0 5.085638-2.605788 6.391092-2.605789 7.143648 0 2.928312 0.542659 2.414322 0.488394 4.313629-0.162798 5.145024-3.546739 3.680868 2.117395 7.835795 5.338538-3.897931 7.076071-9.399267 10.713936-11.852497l0.813988-0.534468c0.126962-0.078839 0.27133-0.19761 0.398292-0.296927 3.112611-2.236166 6.840578-2.730702 9.627594-5.183931 3.456637-3.06756 6.333755-1.48361 11.057961-2.908858 3.293839-0.989073 1.23071-1.128322 3.149471-2.276098 2.805446-1.661766 6.479146-0.375766 7.709857-4.214312 1.50204-4.729326 0.922521 1.345385 2.244356-4.888028 1.954597 0 4.21636 0.515014 4.741613 0.515014 3.909194-0.059385-0.416721-0.573376 3.927624-1.721151 2.298623-0.613307 2.153231 0.218088 4.488714-0.810917 14.514598-6.391092 9.954213-9.656262 14.31494-11.476731 0.995217-0.415697 1.049482 0.019454 2.551523-0.772009 0.217064 2.928312 0.651191 1.602381 0.651191 4.294175 0 2.592478-3.383941 3.66039-4.23479 6.094165-0.922521 2.611931-0.198634 5.63956-1.646408 8.924185-6.623514 0-9.70029 0.078839-15.021421 1.424224 0.217064 2.928312 0.651191 1.602381 0.651191 4.294175 0 2.868927-3.258003-1.147775-4.578815 5.006799 1.719103 0.435151 1.918761 0.653239 3.258003 1.424225-0.633785 1.306478-0.434127 1.542995-1.50204 2.651863-3.329675 3.46278-5.809525 0.929688-9.591758 0.929688-3.040939 0-2.334459 2.17678-3.258003 4.294175-4.361751-1.266546-0.235494-2.868927-5.882221-1.424225 0 9.379813 4.994513 10.526565-10.966836 13.712897l-9.827251 2.830019c-2.44299 1.839922-0.488393 0.078839-1.990433 2.830019l-6.42488 11.555569c-0.759723 1.761083-1.719103 4.254244-3.383941 5.599629-1.537876 1.247092-3.420801 2.216712-4.633082 4.214312 0.488393 2.315005 1.24914 2.651863 1.556306 4.689395 0.525253 3.482234-0.579519 0.138225-0.905114 4.591102-3.293839-1.721151-5.158334 0.593853-6.823172 3.244692-6.641944 10.566497-5.936487 3.897931-11.456253 3.897932-2.244357 0-4.270626 2.136849-9.139201 2.136849 1.032076 2.37439 1.393508 3.126946-0.759723 4.116019-0.090102 0.039932-5.049802 0.89078-5.121474 0.89078-0.525253 2.433775-0.398291 6.391092-1.556306 8.291423l-4.234789 6.074712c-1.266546 2.295551-0.688051 2.690771-3.999296 2.770633 1.086342 2.117395 0.651191 5.382565 0.651191 7.855249-2.73275 0-6.170957 0.218088-7.94535 2.058009-2.768586 2.908858-0.542659 4.03718-0.54266 6.509863l-2.605788 11.437823 0.759723 5.698946c2.75118-0.237541 3.312269-0.810917 5.104068-2.117395 0 7.400643 2.117395 2.433775 3.258004 7.143648 3.909194-0.356312 1.158014-2.136849 10.442606-2.136849v2.136849c4.723183-0.435151 2.534116-3.581551 11.746012-3.581551v2.136849c4.977107 0.455629-0.325596 3.581551 9.791416 3.58155-0.416721 1.741629-1.810229 4.056634-2.605788 5.7184 3.076775 0 2.913978 0.118771 5.230006 0.712624l-1.303406 8.567873c2.841282 0 6.045019-1.187707 7.872654-1.107844 1.122178 0.039932 8.578111 3.324556 9.646024 4.729326l1.393508 2.196234c1.864495 1.998624 2.081559 5.124546 2.642648 7.756955-0.995217 1.582927-0.108532 0.89078-1.954597 1.424225v1.424224c1.973027 0.573376 2.352888 0.989073 2.588382 3.640936 0.344025 4.23479-0.633785 3.422849 0.905114 6.767882l1.990433 3.581551c3.329675 5.659014 2.787016 6.866175 10.840898 6.708497 8.162414-0.158702 7.021806 2.868927 9.791416 2.868927 2.75118 0 1.954597-2.770634 1.954597-5.7184 1.791799 0.454605 1.303406 0.672693 2.913977 1.08839 5.44707 1.424224 4.977107 0.138225 10.134417 3.918409 2.46142-1.801014 5.049802-1.48361 7.94535-2.018078 3.366535-0.613307 4.542979-1.542995 8.379478-1.542995v-3.581551c3.438207 0.078839 3.98189 1.048459 5.882221 2.849473 3.239573-0.950166 0.723887-1.424224 5.882221-1.424224 0.705457 2.868927 0.181228 2.077463 3.258003 2.136848 0.054266 2.849473 0.307166 2.651863 1.303406 4.294175l6.497577-2.255619c2.044699 1.582927 1.48361 2.236166 3.94503 2.968244 2.605788-2.077463 0.108532-1.167229 2.46142-3.740254 2.044699-2.236166 2.008863 0.929688 2.117395-4.116019 1.936167 1.009551 1.827635 0.712624 4.578815 0.712625 1.375078-6.450478 3.402371 0.593853 4.416018-5.995873l1.23071-6.391092c0.379861-1.187707 0.035836 0.593853 0.868254-1.899307-3.203737-2.572 0.579519-2.315005-3.258003-1.424225 0.344025-1.801014 0.144368-2.94879 0.162798-3.047083 0.596925-2.770634 1.900331-1.939239 4.397588-1.939238 0-19.05553 2.73275-14.406067 3.909194-20.005696 4.21636 1.226615 6.94911-0.059385 10.749772-1.08839 8.125554-2.196234 3.383941-3.186331 13.41085-3.186331 4.397587 0 5.574032 1.424224 11.093797 1.424225v-2.136849c2.534116 0.653239 1.592142 0.969619 4.633081 1.364839 3.819092 0.475083 1.881901-0.831395 4.379158 1.642312 4.977107 4.907482 4.198954 1.820468 8.614971 4.135473 2.73275 3.008175-2.190091 9.834419 5.791095 12.961364 1.122178 0.435151 1.629002 0.415697 2.515687 1.542995 0.742317 0.929688 0.2529 0.296927 0.705457 1.365863 0.090102 0.19761 0.27133 0.831395 0.344025 1.048459l1.683268 4.591102c0.633785 1.187707 1.21228 1.48361 2.027293 2.790087-2.968244 4.4324-4.470283 3.541619-1.954598 9.280497 2.877118-0.256995 2.859712-1.424224 4.578816-1.424225 2.75118 0 1.719103 3.26517 2.696914 6.352185 1.086342 3.46278 1.646408 2.928312 1.864495 7.954565 0.379861 8.805414 6.551842 6.649111 5.230006 12.842594h4.578815c0.688051-3.26517 1.755963-2.512615-0.651191-3.581551 1.447774-1.009551 2.008863-0.929688 2.47985-2.077463 0.035836-0.078839 0.108532-0.296927 0.126962-0.375766l1.303406-10.408819c4.524549 0 5.538196-1.424224 9.139201-1.424224 2.98565 0 2.407154 3.522166 3.727966 5.204409l4.23479 5.362087c1.954597 2.493161 0.633785 2.711248 3.782232 3.008176 0.217064 2.651863 0.832419 0.950166 2.768586 1.306477l8.994833 0.831395c1.284976-6.055258 1.629002-1.147775 5.356968-4.096565 2.280193-1.801014 3.727966-4.076087 3.782232-7.341258 2.768586 0.059385 10.297215 4.194858 10.876734 3.878478 1.791799-0.989073 0.398291-3.363463 0.072696-5.777785-0.398291-2.987697 0.796583-3.640936 0.796583-6.668565 0-2.611931-0.579519-1.701697-0.651192-5.006799l4.614652-0.218088c1.176444-0.039932 0.108532-0.019454 1.990433 0.099317 1.773369 0.118771 3.366535 0.118771 5.139904 0.118771v-2.136849l7.818388-0.850849c1.049482 4.392468 6.170957 2.276097 9.808822 2.276097 2.98565 0 1.194874 1.187707 1.320812 2.216712l1.936167 3.502712c-0.633785 1.029005-1.103748 1.919785-1.864495 2.968243-0.905115 1.266546-1.23071 1.385317-2.063129 2.750156 2.027293 1.167229 2.678484 1.542995 5.085638 1.899307l6.008159 0.96962c-0.995217 4.056634-3.94503 6.114643-5.882221 9.280496l2.388725 1.661766c4.361751 3.680868 3.402371 3.087014 1.520469 11.911882h5.882222v-2.136848c1.50204-0.178156 1.032076-0.356312 1.466203-0.534469l1.447774-0.573375c3.529333-1.147775 4.126258-2.671317 7.221463-2.25562 2.280193 0.296927 5.139904 1.582927 7.347401 0.396244 2.678484-1.444702 1.954597-4.155951 2.913978-6.866175 1.881901-5.223863 1.791799 0.178156 1.791799-9.458653 0-3.027629-0.470987-3.977794-0.525253-5.777785-0.072696-2.414322 0.525253-2.37439 0.525253-5.63956 4.831715 1.226615 3.258003-2.414322 3.258004-7.143648 3.819092 0 5.791095-0.454605 5.882221-5.006799 4.578815 1.207161 3.475067-0.712624 6.533412-0.712624 2.171661 0 1.918761 1.286 1.954597 3.58155 0.506823 0.039932 2.153231 0.396244 2.225927 0.396244 2.497256 0.099317 1.737533-1.385317 4.144688-0.218087 2.75118 1.325931 1.013646 1.325931 4.633081-0.296927 3.637865-1.622858 4.723183-0.732078 7.275729-4.888029-3.039916-2.236166-3.727966-1.385317-6.533413-2.849473 0.434127-5.63956 3.619435-0.455629 1.303407-5.718399 3.764826 0 4.053562 0.929688 4.795878-2.750156 0.198634-0.969619 0.162798-2.038556-0.01843-2.631385-0.596925-1.899307-0.886685-0.613307-1.502039-2.473707 5.139904 0 3.746396 0.89078 4.705777-3.422849 0.615355-2.770634-0.434127-0.218088 1.23071-2.94879 4.470283-7.381189 4.506119-9.121794 4.506119-18.639832 2.370295-0.593853 3.655271-2.097941 4.868575-2.453229 1.122178-0.316381 3.96346 0.296927 6.40645-0.178156 5.158334-0.989073 8.252516-0.950166 14.189003-0.950166l1.049483-1.701697c0.108532-0.158702 0.470987-0.632761 0.579519-0.810918 1.086342-1.899307 0.796583-0.593853 0.995216-3.205784 3.00408-0.277473 1.067912-0.415697 3.583599-1.068937 1.629002-0.415697 2.569952-0.178156 4.036156-0.593853 3.98189-1.147775 6.514982-3.819092 9.17606 3.284624 1.122178 3.008175 2.913978 5.857648 5.392804 7.678116 5.519766-4.056634 5.809525-1.266546 12.45147-0.751532 8.19825 0.632761 15.038828 1.542995 22.82138 1.464156 1.067912-0.019454 2.949814-0.118771 3.927624-0.019454 5.356968 0.51399 7.564465 9.320428 12.378773 9.320428h3.909194c2.425584 0 5.682564-4.926936 5.882222-7.855248 0.959381-13.851121 2.624218-15.730974-6.98597-24.49748-3.456637-3.1464-4.524549-6.92556-7.510199-10.349433-2.787016-3.205785-6.153551-5.402019-8.723503-9.023501-0.886685-1.226615-7.455933-10.171277-7.455933-10.428272 0-1.721151 1.629002-8.528965 2.244357-9.676741 1.158014-2.136849 4.687347-4.333083 6.606108-5.63956 8.523845-5.857648 9.573328 2.117395 22.007391-13.080135 5.012943-6.114643 3.71056-10.96274 13.519382-10.922809 16.830627 0.059385 11.619051-10.428272 17.228918-19.016622 1.755963-2.690771 11.527925-4.03718 16.10674-7.381189 2.244357-1.642312 4.343322-2.968244 6.768906-4.74878l7.637161-4.491785c3.890764-2.750156 3.166877-2.552546 6.008159-6.292799 4.324892-5.7184 9.737149-4.254244 15.473979-3.621483 0.813989 3.640936 2.877118 5.975395 3.94503 10.566497 0.525253 2.215688 0.759723 3.897931 1.556306 6.153551 0.832419 2.354936 1.466204 3.165853 1.683267 6.015326 1.900331 0 10.442606-0.356312 10.442607-3.581551 0-8.904731-6.660374-10.843969-11.275026-16.245988-9.41053-11.041579-6.931704-4.888029-7.818388-20.856544-0.126962-2.157326-0.688051-1.504088 0.542659-3.186332 2.47985-3.403395 7.329995-1.325931 10.985266-0.751531 11.365127 1.839922 21.861999-0.475083 33.662278-0.415698l16.269538-1.48361c5.2126-0.751532 6.587678-6.03478 6.587678-12.802662-2.805446-0.712624-7.637161-3.66039-10.442607-5.006799-3.293839-1.563473-6.045019-4.23479-8.940566-6.649111-7.962756-6.60918-9.284592-3.06756-11.166494-12.070584-1.122178-5.362087-1.067912-9.003024-0.832418-14.207433 0.217064-4.689395 5.4655-8.449102 8.759339-11.120419 4.107828-3.344009 6.732046-5.877102 12.614267-6.92556 31.453757-5.620107 37.969763 8.132721 40.43016-5.045707 4.814309-25.743549 9.664454-16.79991 27.871182-19.530612 2.895548-0.435151 6.008159-0.19761 8.957973-0.19761 4.126258 0.019454 6.026589-0.435151 9.1392-0.712625 1.303406 2.987697 1.21228 5.501336 2.261763 8.964116 0.832419 2.750156 2.081559 5.976419 2.316028 8.904731 4.904411 0 7.782552 1.682244 12.14328-1.009551 1.48361-0.929688 1.973027-1.187707 3.529333-1.860399 3.800662-1.661766 4.162094-1.741629 7.203033-4.273698 5.592462-4.650487 13.66375-9.29995 16.957589-16.443598 1.846065-4.016702 2.678484-22.51831 5.230006-30.730894 1.973027-6.352185 6.44331-6.866175 7.674021-15.177052a474.952757 474.952757 0 0 0 2.71432-21.370535c0.035836-0.277473 0.054266-0.573376 0.072696-0.831395v-2.671317c-0.796583-10.210184-11.220759-10.091414-19.581807-10.645335-5.230006-0.356312-11.963076-1.187707-17.591374-0.672693-3.420801 0.316381-9.15763 2.117395-11.636457-1.642312-3.583599-5.441951-2.171661-6.312253-8.777769-13.969891-3.601005-4.175404-6.42488-3.008175-11.61905-3.008175-1.610572 6.628634-7.601325 10.863423-11.582191 15.197529-3.98189 4.333083-4.23479 2.018078-10.532708 2.770634-4.668917 0.553922-9.71872 1.404771-12.722799-2.730702l-3.819093-6.549794c-0.850849-1.542995-1.755963-3.087014-2.46142-4.451854-0.886685-1.721151-1.176444-2.94879-2.425584-4.491785-1.683267-2.05801-1.629002-1.642312-4.578815-2.136848-7.203033-1.226615-13.718016-2.611931-21.120707-2.611932-8.903707 0-11.293455 4.412946-18.459628-4.096565l-6.514983-7.163102c-4.397587-4.848097-9.737149-8.943638-14.152143-13.812213-2.135825-2.354936-1.375078-3.581551-2.46142-7.360711-1.629002-5.738877 1.284976-69.574032-0.922521-76.104373-0.905115-2.651863-1.827635-3.799638-2.551522-7.203033h-5.230006c-2.949814 6.094165-8.270946 14.069208-11.871951 20.579071-2.968244 5.362087-5.302702 10.922809-8.922136 15.968516-1.086342 1.504088-2.334459 3.363463-3.510903 4.729326-3.836498 4.491785-5.609868 3.008175-6.98597 9.498584-0.434127 2.05801-0.126962 1.424224-0.850848 3.363463-2.063129 5.560721-1.664838 12.980818-2.551523 18.639833-0.362455 2.255619-1.032076 4.867551-1.176444 7.281872-0.27133 4.333083-0.144368 6.827267-2.388724 10.250116-0.850849 1.306478-0.398291 1.8604-2.225927 1.8604l0.194538-0.083959z" fill="#1a1a1a" p-id="4500"></path></svg>