<?xml version="1.0" standalone="no"?><!DOCTYPE svg PUBLIC "-//W3C//DTD SVG 1.1//EN" "http://www.w3.org/Graphics/SVG/1.1/DTD/svg11.dtd"><svg t="1495766568840" class="icon" style="" viewBox="0 0 3047 1024" version="1.1" xmlns="http://www.w3.org/2000/svg" p-id="2972" xmlns:xlink="http://www.w3.org/1999/xlink" width="47.609375" height="16"><defs><style type="text/css"></style></defs><path d="M315.021292 545.648731s1.882326 20.111549 20.562449 16.797796c0 0 45.705463-37.360244 47.18699-77.540399 0 0 17.907151-126.180288 44.467279-176.208661 0 0 3.184925-30.797151-66.84764-97.022121 0 0-25.250372 7.407635-23.518345 19.274164 1.753498 12.002515 34.261205 27.147013 14.88684 99.927918l-17.177123 152.683158s-1.381327 45.519378-19.56045 62.088145M651.506832 629.702124l-70.454836-79.58734s-36.458445-16.218068-28.785997 19.538978c0 0-35.463603 119.967895-94.560066 152.432659 0 0-8.309434 36.32246 31.019023 11.06493 0 0 104.995169-67.133925 137.259533-62.57483 0 0 41.024697-13.2407 25.522343-40.881555M405.050892 607.314606s15.123026-29.952609-16.654653-21.006191c0 0-67.09814 84.747634-110.978534 92.727839 0 0-72.831005 74.205175-100.464702 86.994975 0 0-57.722293 36.329617-65.430527 49.913859l-8.230705-7.786963s63.827329-150.120904-10.327746-178.78523c0 0-14.622027 7.185763-11.258173 28.399512 0 0-44.868079 163.053847-81.705852 185.455679 0 0 29.415824 45.905863 65.029728 76.974985 0 0 131.97041-59.833648 171.191509-90.337356 0 0 66.275069-62.145402 81.662909-89.220844 0 0 68.343481-88.762787 87.166746-133.337423M2120.723481 236.961504c-19.703592-4.365852-33.803148 24.663487-33.803148 24.663487l-59.132248 31.491393c7.49352-21.90799-67.82101-70.41905-67.821011-70.41905-33.853248-17.492038-41.439811 4.294281-41.439811 4.294281-9.447418 25.765686 18.658651 80.453353 18.658651 80.453353l1.080727 36.837773-123.088405 91.897612c-40.330455-19.875364-0.529628-74.720488-0.529628-74.720488-5.432265-42.921338-33.481077 5.553937-33.481077 5.553937-31.656008 72.430205 3.829067 140.415829 3.829067 140.415829 31.477079 51.803342 82.056551 20.125863 95.726679 10.234703-18.572765 18.193437-67.77091 115.122515-67.77091 115.122515-60.141404 158.931337-213.712048 270.718627-213.712048 270.718627-40.122898 47.974275 26.173642 23.13186 26.173642 23.13186 58.115935-23.396674 214.728361-198.610493 214.728361-198.610493 218.535957-260.390881 204.858672-362.966939 204.858672-362.966939 52.740927-24.427301 114.721715-81.219167 114.721715-81.219167l-39.006385-46.879233M2092.789184 675.407587s42.749567 142.426984 1.646141 179.443686c0 0-26.173642 44.875236 14.357212 29.422981 0 0 58.717135-96.750149 106.197568-131.383525 0 0 19.689278-72.902576-87.138118-110.176934 0 0-56.25508-31.770522-35.062803 32.693792M2867.677863 6.387246l-14.829583 21.564448-66.532726 54.759239s2.139983 50.901543-69.109294 29.845252c0 0-24.327101 0.407957-26.932299 41.396868l-113.032631 106.176096s-36.515702 33.345091-48.160361-39.085113c0 0-12.668129-55.18151-30.303309 21.177962 0 0-3.950738 87.388617 15.674125 101.652787 0 0 68.958995 20.898834 75.071188-39.74357 0 0 98.675419-99.748989 114.807601-116.675613 0 0 58.323492 32.042493 82.349994 20.705591 0 0 24.40583 10.979045-26.102071 61.386746 0 0-167.233614 255.402358-213.819405 258.279527 0 0-20.798634 55.940166-2.054097 87.732159 0 0 55.059839 13.670128 68.250438 0.87317l69.982465-73.897417s11.036302 37.002387-25.035658 105.782453c0 0-1.295441 72.330005 66.661554 35.549489 0 0 79.036241-23.790316 100.042432 32.922821 0 0-138.676646-26.116385-350.026839 153.162686 0 0-9.311432 66.604297 284.510426 150.321304 0 0 117.498683 33.402349 132.299638-102.619l0.679928-107.886651s-15.158812-13.620028 14.929784-21.593076l71.836162 16.869367s19.782321 38.433814 39.707785 0.128829c0 0 72.931204-27.25437-14.600555-68.765752l-131.261854-18.093237s26.824942-78.943198-122.794963-91.876141l41.575796-177.640088s-31.777679-58.230449-111.035791 18.451094c0 0 66.096141-89.864986 104.894969-111.78729 0 0 17.98588-1.409956 24.334259-50.8085 0 0 27.540655-6.155136 59.690505-90.938556 0 0 46.041849 1.17377 90.272942-191.52493 0 0-57.507579-36.537174-91.940555-15.810111z m-32.586435 879.411478c-18.107551 118.021154-188.204019 44.388551-188.204019 44.388551-89.736157-15.402154 45.032693-82.278423 45.032693-82.278423l101.14463-50.708301c88.068545-37.897029 42.026696 88.598173 42.026696 88.598173zM2806.956731 128.015597s-1.996841-13.498356 12.632343-22.187119l35.563803-26.746213s-21.664647 86.644275-48.196146 48.933332M1188.771476 736.057148s-16.046296-49.58463 84.404092-161.808506l-8.509834-45.691149 10.764331-26.280999-24.148173-19.503193s-0.808756-46.857762-49.391388-46.807662c0 0-28.084597-7.035464 28.370883-37.023858l119.023153-71.363792 58.810178-135.727906s16.704753-23.303631-30.804309-39.965442c0 0-3.235025 30.059967-35.349089 45.476435-32.035336 15.430783-78.814369 55.059839-101.559744 80.18854 0 0 48.324975-128.921471 53.320655-158.129738l-7.99452-55.396224s-29.444453-43.100266-33.881877 41.804824l-134.561293 265.830304-84.196534 44.696308s-80.982981-17.978723-45.233093 43.780194l69.510094 55.675352-80.932881 174.777234-25.057129 48.074475 57.972792 41.210783 93.915924-54.143726s12.195758 0.078728 8.209234 19.768007l-27.554969 78.334841s-61.980788 64.178029-85.298734 62.00226c0 0-9.705075 0.0501-41.790511 10.499517 0 0-97.501649 48.181832-8.373847 93.422081 0 0 28.013026 31.205108 58.531049-19.116707l40.144369-65.201499 121.012837 93.006968s26.338256-32.801149 20.004192-92.212526l0.644142-170.168039zM1102.699772 651.023228l-52.576313 32.063965 45.369078-152.425502c14.786641-48.56116 67.441682-70.784064 67.441682-70.784064-1.238184 45.683992-31.741893 125.486046-31.741893 125.486046-13.684442 41.525697-28.492554 65.659555-28.492554 65.659555" p-id="2973" fill="#1a1a1a"></path><path d="M1321.242886 797.665765l-83.008451-23.983559s-63.755758 1.903798-12.954414 32.829778c0 0 42.685152 43.26488 56.920694 79.208012 0 0 11.930944 65.380427 57.271393 14.493198l20.326263-40.008384s15.974725-38.534014-38.555485-62.539045" p-id="2974" fill="#1a1a1a"></path></svg>